Coordinates
version=1
nRows=17
nColumns=36
inDegrees=yes

Units are S.I. units (second, meters, Newtons, ...)
If the header above contains a line with 'inDegrees', this indicates whether rotational values are in degrees (yes) or radians (no).

endheader
time	pelvis_tilt	pelvis_list	pelvis_rotation	pelvis_tx	pelvis_ty	pelvis_tz	hip_flexion_r	hip_adduction_r	hip_rotation_r	knee_angle_r	knee_angle_r_beta	ankle_angle_r	subtalar_angle_r	mtp_angle_r	hip_flexion_l	hip_adduction_l	hip_rotation_l	knee_angle_l	knee_angle_l_beta	ankle_angle_l	subtalar_angle_l	mtp_angle_l	lumbar_extension	lumbar_bending	lumbar_rotation	arm_flex_r	arm_add_r	arm_rot_r	elbow_flex_r	pro_sup_r	arm_flex_l	arm_add_l	arm_rot_l	elbow_flex_l	pro_sup_l
      1.74000000	    -23.52958160	     -3.10870281	      2.79610253	     -0.33314470	      0.82392843	     -0.55548642	     72.12047392	      2.28171462	     -0.93125620	     77.12256027	      1.34604260	     26.07173360	    -17.04057995	     -7.56233571	     73.53847246	     -5.19631099	      1.41497700	     77.03820171	      1.34457027	     27.79362218	     -6.81282911	     -7.56233571	     -3.44166436	     -1.80628825	     -4.97741591	    179.97040958	   -159.83169280	    176.65772075	    130.23958692	    112.50507112	    179.96995287	   -159.59288751	    177.98630249	    118.70779166	     91.29479225
      1.75000000	    -25.87236458	     -2.94968280	      2.61266730	     -0.33391488	      0.82247703	     -0.55457036	     74.40153204	      2.09400313	     -0.87089835	     76.61831237	      1.33724182	     25.87024174	    -16.68782509	     -7.56152467	     75.68835472	     -5.44311498	      0.83092422	     76.40527350	      1.33352359	     27.49219760	     -6.36781317	     -7.56152467	     -1.93977763	     -2.05686835	     -5.24280225	    179.97223234	   -159.30195376	    177.21945508	    132.86168295	    112.52434678	    179.97087206	   -157.28344720	    177.57158506	    122.49337190	     91.79882115
      1.76000000	    -27.85696059	     -2.75882885	      2.43517972	     -0.33479627	      0.82173694	     -0.55380733	     76.30104735	      1.93460678	     -0.76586906	     76.10324621	      1.32825222	     25.59596993	    -16.39192967	     -7.56051229	     77.43714619	     -5.68011565	      0.25325850	     75.76398803	      1.32233105	     27.21624027	     -5.95408474	     -7.56051229	     -0.87982750	     -2.32517004	     -5.41065622	    179.97359547	   -158.59772556	    177.48458805	    135.28826929	    112.46083833	    179.97141449	   -154.86156835	    176.76927847	    125.99520691	     92.06679936
      1.77000000	    -29.53156780	     -2.57885620	      2.31146490	     -0.33581103	      0.82161897	     -0.55336497	     77.85875870	      1.76396907	     -0.65457106	     75.56641197	      1.31888269	     25.27442852	    -16.10785310	     -7.55960883	     78.84494447	     -5.84167137	     -0.28654445	     75.08944135	      1.31055798	     26.89531403	     -5.62447860	     -7.55960883	     -0.21366871	     -2.50433709	     -5.53508488	    179.97456092	   -157.70078183	    177.46514252	    137.54730237	    112.34951337	    179.97158051	   -152.42273997	    175.62921815	    129.12808882	     92.07462101
      1.78000000	    -30.93096010	     -2.40940027	      2.22505260	     -0.33697332	      0.82188506	     -0.55318361	     79.12943094	      1.58116086	     -0.59389453	     75.02391068	      1.30941426	     24.92142724	    -15.90702206	     -7.55860618	     79.98061104	     -5.91221451	     -0.73692817	     74.42709549	      1.29899787	     26.50694020	     -5.46161184	     -7.55860618	      0.08172274	     -2.61192036	     -5.60799664	    179.97513756	   -156.61961530	    177.11094479	    139.67706581	    112.05852906	    179.97134170	   -149.96179693	    174.20852543	    131.91581989	     91.73508709
      1.79000000	    -32.17411007	     -2.41398465	      2.16017201	     -0.33831289	      0.82209558	     -0.55313811	     80.21643496	      1.47918960	     -0.67890918	     74.45729804	      1.29952500	     24.77797163	    -15.74060164	     -7.55825958	     81.05315954	     -5.94210643	     -0.89518016	     73.87569939	      1.28937419	     26.33340100	     -5.36672085	     -7.55825958	      0.21377405	     -2.52497774	     -5.56473101	    179.97535404	   -155.31673372	    176.29703748	    141.66750107	    111.93091482	    179.97075319	   -147.66879114	    172.54968836	    134.36228993	     91.66917149
      1.80000000	    -33.02635982	     -2.32591862	      2.20657907	     -0.33992705	      0.82266167	     -0.55357987	     80.98815756	      1.23571123	     -0.66286028	     74.03667882	      1.29218381	     24.32348411	    -15.65780585	     -7.54766927	     81.73139812	     -5.76249385	     -1.08823219	     73.29738457	      1.27928069	     25.62696301	     -5.88313391	     -7.54766927	     -0.23939023	     -2.52540058	     -5.47123384	    179.97517185	   -153.66245016	    175.29155838	    143.88530621	    107.02734154	    179.96994693	   -145.30626747	    171.16633641	    137.67923673	     82.82964348
      1.81000000	    -33.98995573	     -2.32513947	      2.27466538	     -0.34165727	      0.82264548	     -0.55411583	     81.92259086	      0.97415184	     -0.73204602	     73.69373530	      1.28619832	     24.14448291	    -15.40040936	     -7.54738864	     82.60447828	     -5.54915234	     -1.10964432	     72.84501087	      1.27138528	     25.46028459	     -5.73592009	     -7.54738864	     -0.43525978	     -2.43827307	     -5.32582094	    179.97483439	   -152.20497812	    173.91140280	    145.47702094	    107.02726478	    179.96899420	   -143.43267879	    169.48457450	    139.53838809	     82.93450509
      1.82000000	    -34.39492544	     -2.37221958	      2.36387237	     -0.34350947	      0.82287384	     -0.55515780	     82.34881854	      0.64115184	     -0.92854332	     73.47945289	      1.28245839	     23.91466955	    -15.03660919	     -7.54656489	     82.99520922	     -5.28146171	     -1.05359898	     72.52705950	      1.26583598	     25.04382844	     -6.08078397	     -7.54656489	     -1.43416625	     -2.20900176	     -4.91424832	    179.97388746	   -149.75221600	    171.66852336	    147.03568840	    106.78386460	    179.96825736	   -141.74707070	    167.96481854	    141.32907869	     82.84580262
      1.83000000	    -14.59677719	     -2.83769407	      3.20008456	     -0.37018065	      0.84603054	     -0.55789987	     63.78988502	      0.83898044	     -2.29827772	     74.39360883	      1.29841342	     23.63956090	    -14.64683118	     -7.48934092	     65.25270968	     -5.36520693	      0.78212850	     74.40514743	      1.29861480	     24.81062817	     -6.62771924	     -7.48934092	    -21.31579571	      0.41882797	     -3.57262392	     55.71719449	    -22.76397118	     12.92983361	    117.89538825	    110.30975093	     51.27366258	    -27.40325019	      8.69378790	    109.20889859	     99.11145118
      1.84000000	    -15.33031664	     -2.84215494	      3.21934744	     -0.37123970	      0.84512284	     -0.55831440	     64.61365603	      0.68419456	     -2.33458032	     74.31754076	      1.29708578	     23.43449715	    -14.61388383	     -7.49088091	     66.05010824	     -5.18382885	      0.84465887	     74.28876660	      1.29658357	     24.66774756	     -6.71603205	     -7.49088091	    -21.43265145	      0.61220021	     -3.62825112	     56.22537558	    -22.60504556	     12.00172625	    118.80532486	    110.17989927	     51.02634112	    -28.41319068	      7.62071316	    111.49573271	     97.51429245
      1.85000000	    -16.03132674	     -2.82624353	      3.19527964	     -0.37200474	      0.84390287	     -0.55864310	     65.42414697	      0.60686059	     -2.28585869	     74.32932204	      1.29729140	     23.37649139	    -14.54860191	     -7.49227282	     66.83281653	     -5.06689297	      0.85237260	     74.26217161	      1.29611940	     24.57130415	     -6.78535500	     -7.49227282	    -21.53736198	      0.76125992	     -3.70136512	     56.44264061	    -22.20872657	     10.94420184	    119.56925046	    109.93598467	     50.26253383	    -29.42560079	      6.36875502	    113.73541818	     96.38648509
      1.86000000	    -16.74162486	     -2.78683237	      3.13941346	     -0.37262413	      0.84232505	     -0.55895388	     66.26226804	      0.55243846	     -2.19663425	     74.38522990	      1.29826718	     23.47458873	    -14.42011959	     -7.49386619	     67.64416388	     -4.93191134	      0.88835141	     74.29290196	      1.29665575	     24.45975644	     -6.96357365	     -7.49386619	    -21.59749462	      0.84327137	     -3.63098389	     56.24970095	    -21.94161360	      9.67161431	    120.34349813	    110.00381696	     49.22512667	    -30.12040325	      5.02323372	    115.55455548	     96.21239106
      1.87000000	    -17.35967871	     -2.80193099	      2.98318520	     -0.37302323	      0.84045326	     -0.55903784	     67.02713284	      0.63033271	     -2.13822273	     74.49731428	      1.30022342	     23.57865271	    -14.38571610	     -7.49391558	     68.41357398	     -4.97699855	      0.88423501	     74.47339849	      1.29980601	     24.54020174	     -7.05250307	     -7.49391558	    -21.76999246	      0.87131193	     -3.19876488	     55.59346951	    -22.01106920	      8.15545543	    121.41351820	    109.90818730	     48.16848408	    -30.58078396	      4.14416423	    117.08519168	     96.44549045
      1.88000000	    -18.11311029	     -2.79121176	      2.78667913	     -0.37327242	      0.83785249	     -0.55898932	     67.99654890	      0.75792829	     -2.00536640	     74.72738494	      1.30423891	     23.74758859	    -14.33141507	     -7.49405546	     69.35712774	     -5.03809216	      0.86378417	     74.74312868	      1.30451369	     24.64074899	     -7.07922116	     -7.49405546	    -21.70984678	      0.90270938	     -3.00569339	     54.79038601	    -21.58329700	      6.82973434	    122.11680037	    109.58970506	     46.37349267	    -31.14981532	      2.76182489	    118.45303569	     96.77215674
      1.89000000	    -18.70447229	     -2.80603758	      2.60393289	     -0.37313961	      0.83511149	     -0.55901051	     68.77119277	      0.91624800	     -1.90336509	     74.99063355	      1.30883346	     24.05172981	    -14.34083108	     -7.49430810	     70.14792383	     -5.14669694	      0.81074945	     75.11021902	      1.31092062	     24.95963996	     -7.07115793	     -7.49430810	    -21.84737956	      1.01349532	     -3.04386421	     53.97303999	    -20.85512252	      5.74990902	    122.65702873	    109.08532659	     43.97048036	    -31.78572515	      0.98421811	    119.93071689	     97.18244732
      1.90000000	    -19.22536156	     -2.75122236	      2.43954248	     -0.37278579	      0.83198740	     -0.55903899	     69.52834096	      1.02392007	     -1.77433302	     75.39870064	      1.31595558	     24.40814822	    -14.37571887	     -7.49447262	     70.87386468	     -5.17476047	      0.75574618	     75.54410189	      1.31849331	     25.31547960	     -7.15884222	     -7.49447262	    -21.99761639	      0.99250799	     -2.87129750	     52.73798293	    -20.27553524	      4.36924733	    123.28670569	    108.78935524	     41.59991735	    -31.93511078	     -0.35622524	    120.83489301	     97.36819777
